<?xml version="1.0" standalone="no"?>
<!DOCTYPE svg PUBLIC "-//W3C//DTD SVG 20010904//EN"
 "http://www.w3.org/TR/2001/REC-SVG-20010904/DTD/svg10.dtd">
<svg version="1.0" xmlns="http://www.w3.org/2000/svg"
 width="32.000000pt" height="32.000000pt" viewBox="0 0 32.000000 32.000000"
 preserveAspectRatio="xMidYMid meet">

<g transform="translate(0.000000,32.000000) scale(0.100000,-0.100000)"
fill="#000000" stroke="none">
<path d="M71 209 c-24 -5 -45 -10 -46 -11 -1 -2 -6 -45 -9 -95 -6 -74 -5 -93
6 -94 63 -6 79 -5 84 2 6 11 51 12 57 1 5 -6 29 -7 131 -3 26 1 28 4 22 29 -8
33 -32 52 -63 52 -13 0 -23 5 -23 11 0 5 -5 7 -10 4 -6 -3 -10 -1 -10 5 0 6
-4 9 -9 5 -5 -3 -12 4 -16 15 -3 11 -11 20 -16 20 -6 0 -7 5 -4 10 3 6 1 10
-4 10 -6 0 -11 7 -11 15 0 23 -31 32 -79 24z"/>
</g>
</svg>
